<svg width="30" height="30" viewBox="0 0 30 30" fill="none" xmlns="http://www.w3.org/2000/svg">
<path d="M14.9885 0.0144595C8.84939 0.0144595 3.01968 -0.531653 0.792965 5.18308C-0.126803 7.54337 0.00676625 10.6087 0.00676625 14.9979C0.00676625 18.8494 -0.116659 22.4693 0.792965 24.811C3.01461 30.5291 8.89166 29.9813 14.9851 29.9813C20.8639 29.9813 26.9252 30.5934 29.179 24.811C30.1004 22.427 29.9652 19.4074 29.9652 14.9979C29.9652 9.14451 30.2881 5.36568 27.4493 2.52861C24.5751 -0.34567 20.688 0.0144595 14.9817 0.0144595H14.9885ZM13.646 2.71459C26.4518 2.6943 28.0817 1.27069 27.1822 21.0474C26.8626 28.042 21.5368 27.2744 14.9902 27.2744C3.0535 27.2744 2.71028 26.9329 2.71028 14.9911C2.71028 2.91072 3.6571 2.72135 13.646 2.71121V2.71459ZM22.9857 5.20168C21.9933 5.20168 21.1885 6.00648 21.1885 6.99895C21.1885 7.99142 21.9933 8.79622 22.9857 8.79622C23.9782 8.79622 24.783 7.99142 24.783 6.99895C24.783 6.00648 23.9782 5.20168 22.9857 5.20168ZM14.9885 7.30328C10.7396 7.30328 7.29559 10.749 7.29559 14.9979C7.29559 19.2467 10.7396 22.6908 14.9885 22.6908C19.2374 22.6908 22.6797 19.2467 22.6797 14.9979C22.6797 10.749 19.2374 7.30328 14.9885 7.30328ZM14.9885 10.0034C21.5909 10.0034 21.5993 19.9924 14.9885 19.9924C8.38781 19.9924 8.37767 10.0034 14.9885 10.0034Z" fill="white"/>
</svg>
