<svg width="43" height="45" viewBox="0 0 43 45" fill="none" xmlns="http://www.w3.org/2000/svg">
<path d="M38.8183 4.16933C38.8183 4.14274 38.8108 4.11672 38.7969 4.09407C38.7829 4.07136 38.7624 4.05322 38.7385 4.04128C38.7148 4.02942 38.6886 4.02439 38.6621 4.02668C38.6355 4.02908 38.6094 4.03874 38.588 4.05476C33.0933 8.38578 26.2597 10.6623 19.2654 10.4941V10.4953H6.32594C5.71585 10.4953 5.13092 10.7378 4.69953 11.1692C4.26813 11.6006 4.0256 12.1855 4.0256 12.7956V21.4219C4.0256 22.032 4.26813 22.6169 4.69953 23.0483C5.13092 23.4797 5.71585 23.7222 6.32594 23.7222H19.2654C26.2597 23.5541 33.0933 25.8317 38.588 30.1627C38.6094 30.1788 38.6356 30.1884 38.6621 30.1908C38.6885 30.1931 38.7148 30.1881 38.7385 30.1762C38.7624 30.1643 38.7829 30.1461 38.7969 30.1234C38.8108 30.1008 38.8183 30.0748 38.8183 30.0482V4.16933ZM42.8439 30.0482C42.8439 30.8225 42.6287 31.582 42.2216 32.2407C41.8145 32.8993 41.2315 33.431 40.539 33.7772C39.8466 34.1234 39.0715 34.2701 38.3005 34.2007C37.5294 34.1312 36.7925 33.8485 36.1731 33.3841C36.1593 33.3737 36.1451 33.3623 36.1315 33.3515C31.3553 29.5735 25.4049 27.5899 19.317 27.7467C19.2998 27.7471 19.2826 27.7478 19.2654 27.7478H6.32594C4.64819 27.7478 3.03965 27.0809 1.8533 25.8945C0.666959 24.7082 0 23.0996 0 21.4219V12.7956C2.72338e-07 11.1179 0.666959 9.50931 1.8533 8.32297C3.03965 7.13663 4.6482 6.46967 6.32594 6.46967H19.2654L19.317 6.47079C25.4049 6.62762 31.3553 4.64404 36.1315 0.865956C36.1451 0.855236 36.1593 0.843751 36.1731 0.833383C36.7925 0.368962 37.5294 0.0863297 38.3005 0.0168067C39.0715 -0.0526431 39.8466 0.0940395 40.539 0.440258C41.2315 0.786502 41.8145 1.31825 42.2216 1.97681C42.6287 2.63547 42.8439 3.39503 42.8439 4.16933V30.0482Z" fill="#00AAFF"/>
<path d="M6.46875 25.7355C6.46875 24.6238 7.36991 23.7227 8.48155 23.7227C9.59319 23.7227 10.4943 24.6238 10.4943 25.7355C10.4943 30.8994 12.1697 35.9242 15.268 40.0553C15.634 40.543 16.1785 40.8653 16.7821 40.9516C17.3861 41.0379 18.0002 40.8808 18.4883 40.5147C18.976 40.1487 19.2982 39.6042 19.3846 39.0006C19.4709 38.3967 19.3137 37.7825 18.9477 37.2944C16.4468 33.9598 15.095 29.9038 15.095 25.7355C15.095 24.6238 15.9962 23.7227 17.1078 23.7227C18.2195 23.7227 19.1206 24.6238 19.1206 25.7355C19.1206 29.0329 20.1906 32.2416 22.169 34.8795C23.1754 36.2215 23.6068 37.9084 23.3697 39.569C23.1325 41.2298 22.2454 42.7294 20.9032 43.7361C19.5612 44.7424 17.8743 45.1739 16.2138 44.9368C14.5529 44.6995 13.0533 43.8124 12.0466 42.4702C8.42585 37.6423 6.46875 31.7702 6.46875 25.7355Z" fill="#00AAFF"/>
<path d="M10.7734 25.7351V8.48253C10.7734 7.37089 11.6746 6.46973 12.7862 6.46973C13.8979 6.46973 14.799 7.37089 14.799 8.48253V25.7351C14.799 26.8467 13.8979 27.7479 12.7862 27.7479C11.6746 27.7479 10.7734 26.8467 10.7734 25.7351Z" fill="#00AAFF"/>
</svg>
