<svg width="45" height="45" viewBox="0 0 45 45" fill="none" xmlns="http://www.w3.org/2000/svg">
<path d="M30 39.375V35.625C30 33.6359 29.2098 31.7282 27.8033 30.3217C26.3968 28.9152 24.4891 28.125 22.5 28.125H11.25C9.26088 28.125 7.35322 28.9152 5.9467 30.3217C4.54018 31.7282 3.75 33.6359 3.75 35.625V39.375" stroke="#00AAFF" stroke-width="4" stroke-linecap="round" stroke-linejoin="round"/>
<path d="M30 5.86475C31.6083 6.28169 33.0326 7.22087 34.0494 8.53486C35.0662 9.84886 35.6179 11.4633 35.6179 13.1247C35.6179 14.7862 35.0662 16.4006 34.0494 17.7146C33.0326 19.0286 31.6083 19.9678 30 20.3847" stroke="#00AAFF" stroke-width="4" stroke-linecap="round" stroke-linejoin="round"/>
<path d="M41.25 39.3749V35.6249C41.2488 33.9631 40.6957 32.3489 39.6776 31.0355C38.6595 29.7221 37.234 28.7841 35.625 28.3687" stroke="#00AAFF" stroke-width="4" stroke-linecap="round" stroke-linejoin="round"/>
<path d="M16.875 20.625C21.0171 20.625 24.375 17.2671 24.375 13.125C24.375 8.98286 21.0171 5.625 16.875 5.625C12.7329 5.625 9.375 8.98286 9.375 13.125C9.375 17.2671 12.7329 20.625 16.875 20.625Z" stroke="#00AAFF" stroke-width="4" stroke-linecap="round" stroke-linejoin="round"/>
</svg>
