<svg width="45" height="45" viewBox="0 0 45 45" fill="none" xmlns="http://www.w3.org/2000/svg">
<path d="M39.7266 6.67969H5.27344C2.36566 6.67969 0 9.04535 0 11.9531V33.0469C0 35.9546 2.36566 38.3203 5.27344 38.3203H39.7266C42.6343 38.3203 45 35.9546 45 33.0469V11.9531C45 9.04535 42.6343 6.67969 39.7266 6.67969ZM5.27344 10.1953H39.7266C40.6958 10.1953 41.4844 10.9839 41.4844 11.9531V13.7109H3.51562V11.9531C3.51562 10.9839 4.30418 10.1953 5.27344 10.1953ZM39.7266 34.8047H5.27344C4.30418 34.8047 3.51562 34.0161 3.51562 33.0469V17.2266H41.4844V33.0469C41.4844 34.0161 40.6958 34.8047 39.7266 34.8047Z" fill="#00AAFF"/>
<path d="M15.4688 27.7734H8.4375C7.46666 27.7734 6.67969 28.5604 6.67969 29.5312C6.67969 30.5021 7.46666 31.2891 8.4375 31.2891H15.4688C16.4396 31.2891 17.2266 30.5021 17.2266 29.5312C17.2266 28.5604 16.4396 27.7734 15.4688 27.7734Z" fill="#00AAFF"/>
<path d="M22.5 31.2891C23.4708 31.2891 24.2578 30.5021 24.2578 29.5312C24.2578 28.5604 23.4708 27.7734 22.5 27.7734C21.5292 27.7734 20.7422 28.5604 20.7422 29.5312C20.7422 30.5021 21.5292 31.2891 22.5 31.2891Z" fill="#00AAFF"/>
<path d="M29.5312 31.2891C30.5021 31.2891 31.2891 30.5021 31.2891 29.5312C31.2891 28.5604 30.5021 27.7734 29.5312 27.7734C28.5604 27.7734 27.7734 28.5604 27.7734 29.5312C27.7734 30.5021 28.5604 31.2891 29.5312 31.2891Z" fill="#00AAFF"/>
<path d="M36.5625 31.2891C37.5333 31.2891 38.3203 30.5021 38.3203 29.5312C38.3203 28.5604 37.5333 27.7734 36.5625 27.7734C35.5917 27.7734 34.8047 28.5604 34.8047 29.5312C34.8047 30.5021 35.5917 31.2891 36.5625 31.2891Z" fill="#00AAFF"/>
</svg>
