<svg width="45" height="45" viewBox="0 0 45 45" fill="none" xmlns="http://www.w3.org/2000/svg">
<path d="M22.1333 42.1333C33.179 42.1333 42.1333 33.179 42.1333 22.1333C42.1333 11.0876 33.179 2.1333 22.1333 2.1333C11.0876 2.1333 2.1333 11.0876 2.1333 22.1333C2.1333 33.179 11.0876 42.1333 22.1333 42.1333Z" stroke="#00AAFF" stroke-width="4.26667" stroke-linecap="round" stroke-linejoin="round"/>
<path d="M30.1333 14.1333H18.1333C17.0724 14.1333 16.055 14.5547 15.3049 15.3049C14.5547 16.055 14.1333 17.0724 14.1333 18.1333C14.1333 19.1942 14.5547 20.2116 15.3049 20.9617C16.055 21.7119 17.0724 22.1333 18.1333 22.1333H26.1333C27.1942 22.1333 28.2116 22.5547 28.9617 23.3049C29.7119 24.055 30.1333 25.0724 30.1333 26.1333C30.1333 27.1942 29.7119 28.2116 28.9617 28.9617C28.2116 29.7119 27.1942 30.1333 26.1333 30.1333H14.1333" stroke="#00AAFF" stroke-width="4.26667" stroke-linecap="round" stroke-linejoin="round"/>
<path d="M22.1333 34.1333V10.1333" stroke="#00AAFF" stroke-width="4.26667" stroke-linecap="round" stroke-linejoin="round"/>
</svg>
