<svg width="46" height="46" viewBox="0 0 46 46" fill="none" xmlns="http://www.w3.org/2000/svg">
<path d="M35.1803 0.614258C36.3342 -0.539264 38.3101 0.282815 38.3102 1.91016V6.99121H43.3912C45.0228 6.99159 45.8366 8.96969 44.6862 10.1201L42.6412 12.165C44.333 15.3867 45.2232 18.982 45.2233 22.6514C45.2233 35.1291 35.125 45.2256 22.649 45.2256C10.1714 45.2255 0.0748291 35.1273 0.0748291 22.6514C0.0749256 10.1738 10.1732 0.0771968 22.649 0.0771484C26.3182 0.0771484 29.9142 0.96704 33.1354 2.6582L35.1803 0.614258ZM22.649 3.74316C12.1975 3.74321 3.74094 12.2012 3.74084 22.6514C3.74084 33.103 12.1988 41.5605 22.649 41.5605C33.101 41.5605 41.5582 33.1016 41.5582 22.6514C41.5582 19.9649 40.9888 17.3269 39.901 14.9043L37.7731 17.0342C37.4295 17.3774 36.9632 17.5702 36.4772 17.5703H30.3229L23.9449 23.9473C23.229 24.6631 22.0687 24.6628 21.3531 23.9473C20.6377 23.2317 20.6376 22.071 21.3531 21.3555L27.7301 14.9785V8.82422C27.7301 8.33815 27.9237 7.87195 28.2672 7.52832L30.3951 5.39844C27.973 4.31105 25.3349 3.74316 22.649 3.74316ZM22.649 8.71484C23.6614 8.71484 24.482 9.53556 24.4821 10.5479C24.4821 11.5602 23.6614 12.3809 22.649 12.3809C16.9859 12.3809 12.3786 16.9882 12.3785 22.6514C12.3785 28.3146 16.9858 32.9218 22.649 32.9219C28.3123 32.9219 32.9205 28.3146 32.9205 22.6514C32.9206 21.6392 33.7407 20.8184 34.7526 20.8184C35.7648 20.8184 36.5855 21.6391 36.5856 22.6514C36.5856 30.3359 30.3339 36.5879 22.649 36.5879C14.9646 36.5878 8.71252 30.3359 8.71252 22.6514C8.71262 14.967 14.9646 8.71489 22.649 8.71484ZM31.3961 9.58301V13.9053H35.7174L38.9664 10.6562H36.4772C35.465 10.6562 34.6444 9.83637 34.6442 8.82422V6.33496L31.3961 9.58301Z" fill="#00AAFF" stroke="#00AAFF" stroke-width="0.150001"/>
</svg>
