<svg width="405" height="405" viewBox="0 0 405 405" fill="none" xmlns="http://www.w3.org/2000/svg">
<g clip-path="url(#clip0_327_17924)">
<path d="M313.992 196.714L303.39 141.115C295.483 99.6439 259.222 69.6438 217.003 69.6438H177.227C135.009 69.6438 98.7482 99.6439 90.84 141.115L84.8292 172.637C79.053 202.93 69.8196 232.566 56.0108 260.14C51.9734 268.202 49.8533 277.39 50.2504 287.11C51.3988 315.231 76.149 339.428 104.288 339.978C104.494 339.982 104.7 339.986 104.906 339.987C117.673 340.097 129.966 345.073 138.918 354.175C148.925 364.347 162.844 370.657 178.242 370.657C196.93 370.657 213.443 361.367 223.426 347.154C226.64 342.579 231.912 339.978 237.502 339.99H237.599C240.001 339.99 242.361 339.811 244.669 339.47C249.02 338.825 253.421 339.936 257.012 342.475C266.725 349.346 278.753 353.16 291.7 352.504C319.409 351.102 342.012 328.921 343.894 301.241C344.572 291.281 342.602 281.842 338.62 273.551C326.935 249.215 319.048 223.232 313.992 196.714Z" fill="url(#paint0_linear_327_17924)"/>
<path d="M105.394 339.99C135.875 339.99 160.585 315.28 160.585 284.799C160.585 254.318 135.875 229.608 105.394 229.608C74.913 229.608 50.2031 254.318 50.2031 284.799C50.2031 315.28 74.913 339.99 105.394 339.99Z" fill="url(#paint1_linear_327_17924)"/>
<path d="M178.253 370.657C208.735 370.657 233.444 345.947 233.444 315.466C233.444 284.985 208.735 260.275 178.253 260.275C147.772 260.275 123.062 284.985 123.062 315.466C123.062 345.947 147.772 370.657 178.253 370.657Z" fill="url(#paint2_linear_327_17924)"/>
<path d="M288.832 352.577C319.313 352.577 344.023 327.867 344.023 297.386C344.023 266.905 319.313 242.195 288.832 242.195C258.35 242.195 233.641 266.905 233.641 297.386C233.641 327.867 258.35 352.577 288.832 352.577Z" fill="url(#paint3_linear_327_17924)"/>
<path d="M229.189 134.613C225.193 133.378 221.397 132.487 217.802 131.938C216.067 131.673 214.315 131.459 212.549 131.289C212.535 131.281 212.521 131.273 212.506 131.266L204.416 122.886C202.818 121.843 201.085 121.319 199.221 121.319C197.089 121.319 195.291 121.816 193.827 122.802C192.361 123.791 191.629 124.965 191.629 126.32V131.508C180.042 133.138 170.485 137.417 162.962 144.344C155.435 151.271 151.674 160.776 151.674 172.863C151.674 177.792 152.539 182.288 154.27 186.349C156 190.413 157.999 193.74 160.265 196.337L191.629 227.732V246.383C186.435 245.453 180.773 242.821 174.649 238.491C168.521 234.165 164.192 231.998 161.663 231.998C158.067 231.998 154.902 233.864 152.173 237.592C149.443 241.322 148.078 245.053 148.078 248.78C148.078 253.637 150.461 258.125 155.22 262.244L233.432 340.456C234.755 340.146 236.124 339.987 237.513 339.99H237.609C240.012 339.99 242.372 339.812 244.679 339.47C249.03 338.826 253.431 339.936 257.022 342.476C266.735 349.346 278.763 353.16 291.71 352.505C319.419 351.103 342.022 328.922 343.905 301.242C344.582 291.283 342.612 281.843 338.63 273.551C330.497 256.614 324.208 238.878 319.429 220.721L238.878 140.169C236.412 137.7 233.185 135.85 229.189 134.613Z" fill="url(#paint4_linear_327_17924)"/>
<path d="M243.673 216.215C242.006 211.953 240.008 208.423 237.68 205.626C235.347 202.829 232.252 200.166 228.389 197.635C224.526 195.106 221.064 193.174 218.001 191.841C214.936 190.511 211.21 188.978 206.814 187.246V158.078C211.608 158.477 216.235 159.81 220.698 162.073C225.159 164.339 228.321 165.469 230.188 165.469C234.049 165.469 237.08 163.574 239.278 159.785C241.475 155.995 242.575 152.336 242.575 148.816C242.575 145.523 241.342 142.642 238.879 140.169C236.413 137.699 233.186 135.849 229.19 134.612C225.195 133.376 221.397 132.486 217.802 131.937C214.206 131.388 210.541 131.044 206.815 130.907V126.297C206.815 125.067 206.015 123.931 204.417 122.885C202.819 121.842 201.086 121.318 199.222 121.318C197.089 121.318 195.292 121.814 193.828 122.801C192.362 123.79 191.63 124.964 191.63 126.319V131.507C180.043 133.137 170.485 137.416 162.962 144.343C155.435 151.27 151.675 160.775 151.675 172.862C151.675 177.791 152.539 182.287 154.27 186.348C156 190.412 157.999 193.739 160.265 196.336C162.528 198.934 165.725 201.465 169.855 203.928C173.981 206.394 177.447 208.223 180.243 209.422C183.04 210.622 186.835 212.154 191.629 214.018V246.383C186.435 245.452 180.773 242.821 174.649 238.491C168.521 234.165 164.192 231.998 161.663 231.998C158.067 231.998 154.902 233.864 152.173 237.592C149.443 241.322 148.078 245.053 148.078 248.78C148.078 255.307 152.373 261.166 160.964 266.36C169.555 271.555 179.775 274.351 191.63 274.751V279.746C191.63 281.21 192.362 282.474 193.828 283.541C195.292 284.606 197.09 285.139 199.222 285.139C201.086 285.139 202.819 284.572 204.417 283.441C206.015 282.307 206.815 281.075 206.815 279.745V273.951C218.802 271.954 228.356 267.227 235.483 259.767C242.606 252.31 246.171 242.52 246.171 230.399C246.17 225.205 245.338 220.479 243.673 216.215ZM193.628 182.451C185.104 178.856 180.842 174.661 180.842 169.866C180.842 164.141 185.104 160.41 193.628 158.678V182.451ZM204.815 246.182V219.411C212.937 223.276 217.002 228.002 217.002 233.596C217.002 240.122 212.938 244.318 204.815 246.182Z" fill="url(#paint5_linear_327_17924)"/>
<path d="M224.222 69.6446H170.008L145.342 22.3602C141.701 15.3801 145.858 6.86877 153.602 5.44849L169.754 2.48668C187.844 -0.830196 206.385 -0.830196 224.474 2.48668L240.627 5.44849C248.371 6.86797 252.528 15.3793 248.886 22.3602L224.222 69.6446Z" fill="url(#paint6_linear_327_17924)"/>
<path d="M206.123 69.6446H188.092L179.889 22.3602C178.678 15.3801 180.061 6.86877 182.636 5.44849L188.008 2.48668C194.024 -0.830196 200.191 -0.830196 206.207 2.48668L211.579 5.44849C214.155 6.86797 215.537 15.3793 214.326 22.3602L206.123 69.6446Z" fill="url(#paint7_linear_327_17924)"/>
<path d="M248.076 10.207C249.134 11.7105 248.601 13.806 246.962 14.6367C239.27 18.5487 230.174 18.5487 222.482 14.6367L215.682 11.1835C207.99 7.27136 198.894 7.27136 191.202 11.1835L184.411 14.6367C176.719 18.5487 167.623 18.5487 159.931 14.6367L152.817 11.0186C150.326 9.75129 150.789 5.98186 153.537 5.46511C153.56 5.46035 153.584 5.45639 153.607 5.45243L169.759 2.48507C187.846 -0.827054 206.391 -0.827054 224.477 2.48507L240.63 5.45243C243.82 6.03496 246.397 7.81902 248.076 10.207Z" fill="url(#paint8_linear_327_17924)"/>
<path d="M197.103 74.9443C185.351 74.9443 174.227 74.1851 165.112 72.7822C162.11 72.3202 160.096 69.4582 160.701 66.4814C161.265 63.7137 163.894 61.871 166.686 62.299C175.248 63.6115 186.018 64.3462 197.103 64.3462C208.188 64.3462 218.958 63.6115 227.52 62.299C230.312 61.871 232.941 63.7129 233.505 66.4814C234.11 69.4582 232.096 72.3202 229.094 72.7822C219.979 74.1851 208.855 74.9443 197.103 74.9443Z" fill="url(#paint9_linear_327_17924)"/>
<path d="M121.439 405H28.0506C24.6022 405 22.0478 401.796 22.8173 398.434L30.5916 364.444C31.6259 359.924 35.6474 356.718 40.2855 356.718H109.206C113.844 356.718 117.866 359.924 118.9 364.444L126.674 398.434C127.442 401.796 124.888 405 121.439 405Z" fill="url(#paint10_linear_327_17924)"/>
<path d="M189.11 327.418C190.2 326.18 190.727 324.453 190.321 322.677L182.547 288.688C181.513 284.167 177.491 280.961 172.853 280.961H103.933C100.031 280.961 96.5723 283.235 94.9546 286.648L32.3318 360.696C31.5147 361.784 30.9108 363.051 30.5914 364.445L22.8171 398.434C22.0483 401.796 24.6027 405 28.0504 405H121.44C123.802 405 125.744 403.495 126.486 401.467L189.11 327.418Z" fill="url(#paint11_linear_327_17924)"/>
<path d="M182.549 288.687C182.509 288.511 182.457 288.342 182.408 288.17C181.235 287.688 179.962 287.417 178.633 287.417H109.713C105.811 287.417 102.352 289.691 100.735 293.104L38.1111 367.153C37.2939 368.241 36.69 369.508 36.3706 370.901L28.5964 404.89C28.5884 404.927 28.5853 404.963 28.5781 405H121.442C123.805 405 125.746 403.495 126.488 401.467L189.111 327.419C190.202 326.18 190.729 324.453 190.323 322.678L182.549 288.687Z" fill="url(#paint12_linear_327_17924)"/>
<path d="M121.439 405H28.0506C24.6022 405 22.0478 401.796 22.8173 398.434L30.5916 364.444C31.6259 359.924 35.6474 356.718 40.2855 356.718H109.206C113.844 356.718 117.866 359.924 118.9 364.444L126.674 398.434C127.442 401.796 124.888 405 121.439 405Z" fill="url(#paint13_linear_327_17924)"/>
<path d="M118.895 364.444C118.777 363.931 118.616 363.437 118.425 362.961C117.272 362.496 116.022 362.235 114.719 362.235H45.798C41.16 362.235 37.1385 365.441 36.1042 369.962L28.3299 403.951C28.2491 404.304 28.2134 404.653 28.2031 404.999H121.435C124.883 404.999 127.438 401.795 126.669 398.433L118.895 364.444Z" fill="url(#paint14_linear_327_17924)"/>
<path d="M232.784 405H139.395C135.946 405 133.392 401.796 134.161 398.434L141.935 364.445C142.969 359.924 146.991 356.718 151.629 356.718H220.549C225.188 356.718 229.209 359.924 230.243 364.445L238.018 398.434C238.786 401.796 236.232 405 232.784 405Z" fill="url(#paint15_linear_327_17924)"/>
<path d="M300.453 327.419C301.544 326.18 302.071 324.453 301.665 322.677L293.891 288.688C292.857 284.168 288.835 280.962 284.197 280.962H215.277C211.375 280.962 207.916 283.236 206.298 286.648L143.676 360.696C142.858 361.784 142.255 363.051 141.935 364.445L134.161 398.434C133.392 401.796 135.946 405 139.395 405H232.783C235.146 405 237.088 403.495 237.83 401.467L300.453 327.419Z" fill="url(#paint16_linear_327_17924)"/>
<path d="M293.892 288.687C293.852 288.511 293.8 288.342 293.751 288.17C292.578 287.688 291.305 287.418 289.976 287.418H221.055C217.153 287.418 213.694 289.692 212.078 293.104L149.454 367.153C148.637 368.241 148.033 369.508 147.714 370.902L139.94 404.891C139.931 404.927 139.929 404.964 139.922 405H232.786C235.148 405 237.09 403.495 237.832 401.467L300.455 327.419C301.545 326.18 302.072 324.453 301.667 322.678L293.892 288.687Z" fill="url(#paint17_linear_327_17924)"/>
<path d="M232.784 405H139.395C135.946 405 133.392 401.796 134.161 398.434L141.935 364.445C142.969 359.924 146.991 356.718 151.629 356.718H220.549C225.188 356.718 229.209 359.924 230.243 364.445L238.018 398.434C238.786 401.796 236.232 405 232.784 405Z" fill="url(#paint18_linear_327_17924)"/>
<path d="M230.239 364.444C230.122 363.931 229.961 363.437 229.77 362.961C228.617 362.496 227.366 362.236 226.063 362.236H157.143C152.504 362.236 148.483 365.442 147.449 369.962L139.674 403.951C139.594 404.304 139.557 404.654 139.547 404.999H232.779C236.227 404.999 238.781 401.795 238.012 398.434L230.239 364.444Z" fill="url(#paint19_linear_327_17924)"/>
<path d="M293.89 288.688C293.363 286.384 292.059 284.426 290.294 283.056L145.043 359.078L143.675 360.696C142.858 361.784 142.254 363.051 141.935 364.445L134.161 398.434C133.392 401.795 135.946 404.999 139.395 404.999H232.783C235.146 404.999 237.088 403.494 237.83 401.466L300.453 327.419C301.543 326.18 302.07 324.453 301.664 322.678L293.89 288.688Z" fill="url(#paint20_linear_327_17924)"/>
<path d="M336.299 405H242.911C239.462 405 236.908 401.796 237.676 398.434L245.451 364.445C246.485 359.924 250.506 356.718 255.145 356.718H324.065C328.703 356.718 332.725 359.924 333.759 364.445L341.533 398.434C342.302 401.796 339.748 405 336.299 405Z" fill="url(#paint21_linear_327_17924)"/>
<path d="M403.969 327.419C405.06 326.18 405.587 324.453 405.181 322.678L397.407 288.689C396.372 284.168 392.351 280.962 387.713 280.962H318.792C314.89 280.962 311.432 283.236 309.815 286.649L247.191 360.696C246.374 361.784 245.77 363.052 245.451 364.445L237.676 398.434C236.908 401.796 239.462 405 242.911 405H336.299C338.662 405 340.604 403.495 341.345 401.467L403.969 327.419Z" fill="url(#paint22_linear_327_17924)"/>
<path d="M397.408 288.688C397.368 288.512 397.315 288.342 397.266 288.17C396.095 287.688 394.82 287.418 393.491 287.418H324.571C320.669 287.418 317.21 289.692 315.593 293.105L252.97 367.153C252.153 368.241 251.549 369.509 251.23 370.902L243.456 404.891C243.447 404.927 243.445 404.964 243.438 405H336.301C338.664 405 340.606 403.495 341.348 401.467L403.971 327.419C405.062 326.181 405.589 324.454 405.183 322.678L397.408 288.688Z" fill="url(#paint23_linear_327_17924)"/>
<path d="M336.299 405H242.911C239.462 405 236.908 401.796 237.676 398.434L245.451 364.445C246.485 359.924 250.506 356.718 255.145 356.718H324.065C328.703 356.718 332.725 359.924 333.759 364.445L341.533 398.434C342.302 401.796 339.748 405 336.299 405Z" fill="url(#paint24_linear_327_17924)"/>
<path d="M333.754 364.445C333.637 363.932 333.476 363.438 333.285 362.962C332.132 362.497 330.881 362.236 329.578 362.236H260.657C256.019 362.236 251.998 365.442 250.964 369.963L243.189 403.952C243.108 404.305 243.073 404.654 243.062 405H336.294C339.743 405 342.297 401.796 341.527 398.434L333.754 364.445Z" fill="url(#paint25_linear_327_17924)"/>
<path d="M352.413 280.995L352.433 280.961H318.795C314.893 280.961 311.434 283.235 309.817 286.648L296.91 301.908L293.887 288.688C292.852 284.167 288.831 280.961 284.193 280.961H224.148L194.965 315.469C194.147 316.557 193.543 317.825 193.224 319.218L185.45 353.207C184.916 355.542 185.987 357.798 187.845 358.96L233.787 404.902C235.683 404.544 237.192 403.197 237.826 401.465L237.853 401.432C238.586 403.478 240.537 404.999 242.912 404.999H336.301C338.663 404.999 340.605 403.494 341.347 401.465L401.617 330.201L352.413 280.995Z" fill="url(#paint26_linear_327_17924)"/>
<path d="M284.073 359.773H190.684C187.236 359.773 184.681 356.569 185.45 353.207L193.224 319.218C194.258 314.698 198.28 311.492 202.918 311.492H271.839C276.477 311.492 280.498 314.698 281.532 319.218L289.307 353.207C290.075 356.569 287.522 359.773 284.073 359.773Z" fill="url(#paint27_linear_327_17924)"/>
<path d="M351.743 282.192C352.834 280.953 353.361 279.226 352.955 277.45L345.181 243.461C344.147 238.94 340.125 235.734 335.487 235.734H266.566C262.665 235.734 259.206 238.008 257.588 241.421L194.965 315.469C194.148 316.558 193.543 317.825 193.224 319.218L185.45 353.207C184.681 356.569 187.236 359.774 190.684 359.774H284.073C286.435 359.774 288.377 358.269 289.119 356.24L351.743 282.192Z" fill="url(#paint28_linear_327_17924)"/>
<path d="M345.174 243.461C345.134 243.285 345.082 243.115 345.033 242.944C343.861 242.462 342.587 242.191 341.258 242.191H272.337C268.435 242.191 264.977 244.465 263.359 247.878L200.735 321.926C199.918 323.015 199.314 324.282 198.996 325.675L191.221 359.664C191.213 359.701 191.21 359.737 191.203 359.774H284.067C286.43 359.774 288.371 358.269 289.113 356.24L351.737 282.193C352.827 280.954 353.355 279.227 352.949 277.451L345.174 243.461Z" fill="url(#paint29_linear_327_17924)"/>
<path d="M284.073 359.773H190.684C187.236 359.773 184.681 356.569 185.45 353.207L193.224 319.218C194.258 314.698 198.28 311.492 202.918 311.492H271.839C276.477 311.492 280.498 314.698 281.532 319.218L289.307 353.207C290.075 356.569 287.522 359.773 284.073 359.773Z" fill="url(#paint30_linear_327_17924)"/>
<path d="M281.535 319.218C281.418 318.705 281.257 318.211 281.066 317.734C279.913 317.27 278.662 317.009 277.359 317.009H208.439C203.801 317.009 199.779 320.215 198.745 324.736L190.971 358.725C190.89 359.078 190.854 359.427 190.844 359.773H284.075C287.524 359.773 290.078 356.569 289.309 353.207L281.535 319.218Z" fill="url(#paint31_linear_327_17924)"/>
<path d="M253.296 55.0399L239.75 68.5856C237.359 70.9768 233.481 70.9768 231.09 68.5856C228.699 66.1944 228.699 62.3172 231.09 59.9261L244.637 46.3796C247.028 43.9884 250.905 43.9884 253.296 46.3796C255.687 48.7707 255.688 52.6479 253.296 55.0399Z" fill="url(#paint32_linear_327_17924)"/>
<path d="M245.21 49.1274C246.658 50.5746 247.691 52.2778 248.312 54.0912C249.242 56.8105 248.509 59.8246 246.477 61.8575L239.862 68.4723C237.436 70.8983 233.389 70.9736 231.008 68.5024C228.7 66.1057 228.727 62.2903 231.09 59.9269L243.398 47.6191C244.037 48.0558 244.644 48.5615 245.21 49.1274Z" fill="url(#paint33_linear_327_17924)"/>
<path d="M238.414 55.9238C240.162 57.6722 241.308 59.7955 241.85 62.0337C242.39 64.2632 241.722 66.6131 240.1 68.2347L239.862 68.4725C237.436 70.8985 233.389 70.9738 231.008 68.5026C228.7 66.1059 228.727 62.2905 231.09 59.9271L236.602 54.4148C237.242 54.8523 237.848 55.3579 238.414 55.9238Z" fill="url(#paint34_linear_327_17924)"/>
<path d="M247.051 46.6393L233.504 60.1858C231.113 62.577 231.113 66.4542 233.504 68.8454C234.225 69.5658 235.082 70.0651 235.991 70.352C237.358 70.222 238.69 69.6332 239.737 68.5862L253.284 55.0405C255.675 52.6493 255.675 48.7721 253.284 46.3809C252.563 45.6605 251.706 45.1612 250.797 44.8743C249.43 45.0035 248.098 45.5915 247.051 46.6393Z" fill="url(#paint35_linear_327_17924)"/>
<path d="M244.668 82.3273L231.121 68.7808C228.73 66.3896 228.73 62.5124 231.121 60.1213C233.513 57.7301 237.39 57.7301 239.781 60.1213L253.328 73.667C255.719 76.0581 255.719 79.9353 253.328 82.3265C250.936 84.7185 247.059 84.7185 244.668 82.3273Z" fill="url(#paint36_linear_327_17924)"/>
<path d="M250.595 74.2423C249.148 75.6895 247.445 76.723 245.631 77.3436C242.912 78.2741 239.898 77.5409 237.865 75.5088L231.25 68.8941C228.824 66.468 228.749 62.4212 231.22 60.0403C233.617 57.7316 237.432 57.7585 239.796 60.122L252.103 72.4297C251.667 73.0693 251.162 73.6756 250.595 74.2423Z" fill="url(#paint37_linear_327_17924)"/>
<path d="M243.799 67.4461C242.05 69.1944 239.928 70.3397 237.689 70.8818C235.459 71.4215 233.11 70.7542 231.488 69.1318L231.25 68.8941C228.824 66.468 228.749 62.4212 231.22 60.0403C233.617 57.7316 237.432 57.7585 239.796 60.122L245.308 65.6343C244.871 66.2731 244.366 66.8802 243.799 67.4461Z" fill="url(#paint38_linear_327_17924)"/>
<path d="M253.072 76.095L239.526 62.5485C237.134 60.1573 233.257 60.1573 230.866 62.5485C230.146 63.2689 229.646 64.1257 229.359 65.0348C229.489 66.4019 230.078 67.7342 231.125 68.7812L244.672 82.3277C247.063 84.7189 250.94 84.7189 253.331 82.3277C254.052 81.6073 254.551 80.7505 254.838 79.8414C254.708 78.4743 254.119 77.142 253.072 76.095Z" fill="url(#paint39_linear_327_17924)"/>
<path d="M231.53 77.3489C237.427 77.3489 242.208 72.5681 242.208 66.6706C242.208 60.7732 237.427 55.9924 231.53 55.9924C225.632 55.9924 220.852 60.7732 220.852 66.6706C220.852 72.5681 225.632 77.3489 231.53 77.3489Z" fill="url(#paint40_radial_327_17924)"/>
<path d="M231.531 76.2021C236.795 76.2021 241.063 71.9348 241.063 66.6708C241.063 61.4067 236.795 57.1394 231.531 57.1394C226.267 57.1394 222 61.4067 222 66.6708C222 71.9348 226.267 76.2021 231.531 76.2021Z" fill="url(#paint41_linear_327_17924)"/>
<path d="M236.313 57.1184C237.034 58.5553 237.439 60.1777 237.439 61.8952C237.439 67.7927 232.659 72.5734 226.761 72.5734C225.044 72.5734 223.422 72.1676 221.984 71.4472C223.738 74.9463 227.356 77.3486 231.536 77.3486C237.434 77.3486 242.215 72.5679 242.215 66.6704C242.215 62.4896 239.812 58.8716 236.313 57.1184Z" fill="url(#paint42_linear_327_17924)"/>
<path d="M238.753 62.1008C238.753 64.8407 235.52 67.0623 231.533 67.0623C227.545 67.0623 224.312 64.8407 224.312 62.1008C224.312 59.361 227.545 57.1394 231.533 57.1394C235.52 57.1386 238.753 59.3602 238.753 62.1008Z" fill="url(#paint43_linear_327_17924)"/>
<path d="M362.731 161.281C352.581 167.895 343.921 176.607 337.363 186.799C335.888 189.091 332.485 189.085 331.019 186.787C324.498 176.572 315.87 167.828 305.745 161.177C303.497 159.7 303.503 156.344 305.756 154.875C315.905 148.261 324.566 139.549 331.123 129.357C332.598 127.065 336.001 127.071 337.468 129.368C343.989 139.583 352.617 148.327 362.743 154.978C364.989 156.456 364.983 159.813 362.731 161.281Z" fill="url(#paint44_linear_327_17924)"/>
<path d="M66.8791 172.282C56.7295 178.897 48.0692 187.609 41.5115 197.8C40.0365 200.092 36.6333 200.086 35.167 197.788C28.6466 187.573 20.018 178.829 9.89296 172.178C7.64525 170.702 7.65159 167.345 9.90406 165.877C20.0536 159.263 28.714 150.55 35.2716 140.358C36.7466 138.066 40.1499 138.073 41.6161 140.369C48.1373 150.585 56.7652 159.328 66.891 165.98C69.1379 167.457 69.1323 170.814 66.8791 172.282Z" fill="url(#paint45_linear_327_17924)"/>
<path d="M313.629 112.131C306.451 116.809 300.327 122.969 295.69 130.176C294.647 131.797 292.24 131.792 291.203 130.168C286.592 122.944 280.491 116.761 273.33 112.057C271.741 111.014 271.745 108.639 273.338 107.602C280.515 102.924 286.639 96.7634 291.277 89.5566C292.32 87.9358 294.727 87.9405 295.763 89.5645C300.375 96.7887 306.477 102.972 313.637 107.675C315.226 108.719 315.223 111.093 313.629 112.131Z" fill="url(#paint46_linear_327_17924)"/>
<path d="M389.652 76.8748C382.475 81.5525 376.351 87.7131 371.713 94.9199C370.67 96.5407 368.263 96.5359 367.227 94.912C362.615 87.6878 356.514 81.505 349.353 76.8011C347.764 75.7573 347.768 73.3828 349.361 72.3453C356.539 67.6684 362.663 61.507 367.3 54.3002C368.343 52.6794 370.75 52.6842 371.787 54.3082C376.398 61.5324 382.5 67.7152 389.66 72.419C391.25 73.4628 391.245 75.8366 389.652 76.8748Z" fill="url(#paint47_linear_327_17924)"/>
<path d="M95.0662 83.459C87.8887 88.1367 81.7646 94.2973 77.1273 101.505C76.0843 103.126 73.6772 103.121 72.6406 101.497C68.0294 94.2727 61.9283 88.0899 54.7675 83.3861C53.1784 82.3423 53.1823 79.9685 54.7754 78.9303C61.9529 74.2526 68.077 68.092 72.7143 60.8852C73.7573 59.2644 76.1643 59.2692 77.201 60.8931C81.8121 68.1173 87.9141 74.3001 95.0741 79.004C96.664 80.047 96.6592 82.4207 95.0662 83.459Z" fill="url(#paint48_linear_327_17924)"/>
</g>
<defs>
<linearGradient id="paint0_linear_327_17924" x1="50.2028" y1="220.15" x2="344.027" y2="220.15" gradientUnits="userSpaceOnUse">
<stop stop-color="#FCB37E"/>
<stop offset="0.1704" stop-color="#F0AA76"/>
<stop offset="0.4808" stop-color="#CF9362"/>
<stop offset="0.8934" stop-color="#9B6D42"/>
<stop offset="1" stop-color="#8C6239"/>
</linearGradient>
<linearGradient id="paint1_linear_327_17924" x1="105.967" y1="266.93" x2="98.0201" y2="514.632" gradientUnits="userSpaceOnUse">
<stop stop-color="#8C6239" stop-opacity="0"/>
<stop offset="1" stop-color="#8C6239"/>
</linearGradient>
<linearGradient id="paint2_linear_327_17924" x1="178.323" y1="315.733" x2="213.648" y2="450.556" gradientUnits="userSpaceOnUse">
<stop stop-color="#8C6239" stop-opacity="0"/>
<stop offset="1" stop-color="#8C6239"/>
</linearGradient>
<linearGradient id="paint3_linear_327_17924" x1="287.607" y1="313.085" x2="274.655" y2="479.111" gradientUnits="userSpaceOnUse">
<stop stop-color="#005A01" stop-opacity="0"/>
<stop offset="1" stop-color="#005A01"/>
</linearGradient>
<linearGradient id="paint4_linear_327_17924" x1="295.703" y1="273.593" x2="85.3166" y2="154.552" gradientUnits="userSpaceOnUse">
<stop stop-color="#8C6239" stop-opacity="0"/>
<stop offset="1" stop-color="#8C6239"/>
</linearGradient>
<linearGradient id="paint5_linear_327_17924" x1="173.015" y1="180.455" x2="288.255" y2="279.8" gradientUnits="userSpaceOnUse">
<stop stop-color="#FFC738"/>
<stop offset="0.1876" stop-color="#FDBF3C"/>
<stop offset="0.4837" stop-color="#F7A848"/>
<stop offset="0.8493" stop-color="#ED835B"/>
<stop offset="1" stop-color="#E97264"/>
</linearGradient>
<linearGradient id="paint6_linear_327_17924" x1="183.817" y1="-11.1533" x2="222.675" y2="70.9769" gradientUnits="userSpaceOnUse">
<stop stop-color="#FCB37E"/>
<stop offset="0.1704" stop-color="#F0AA76"/>
<stop offset="0.4808" stop-color="#CF9362"/>
<stop offset="0.8934" stop-color="#9B6D42"/>
<stop offset="1" stop-color="#8C6239"/>
</linearGradient>
<linearGradient id="paint7_linear_327_17924" x1="196.573" y1="32.1999" x2="248.971" y2="113.447" gradientUnits="userSpaceOnUse">
<stop stop-color="#8C6239" stop-opacity="0"/>
<stop offset="1" stop-color="#8C6239"/>
</linearGradient>
<linearGradient id="paint8_linear_327_17924" x1="199.152" y1="2.74186" x2="201.802" y2="28.7942" gradientUnits="userSpaceOnUse">
<stop stop-color="#8C6239" stop-opacity="0"/>
<stop offset="1" stop-color="#8C6239"/>
</linearGradient>
<linearGradient id="paint9_linear_327_17924" x1="197.103" y1="64.4231" x2="197.103" y2="76.9123" gradientUnits="userSpaceOnUse">
<stop stop-color="#FFC738"/>
<stop offset="0.1876" stop-color="#FDBF3C"/>
<stop offset="0.4837" stop-color="#F7A848"/>
<stop offset="0.8493" stop-color="#ED835B"/>
<stop offset="1" stop-color="#E97264"/>
</linearGradient>
<linearGradient id="paint10_linear_327_17924" x1="22.6794" y1="380.858" x2="126.81" y2="380.858" gradientUnits="userSpaceOnUse">
<stop stop-color="#FFD945"/>
<stop offset="0.3043" stop-color="#FFCD3E"/>
<stop offset="0.8558" stop-color="#FFAD2B"/>
<stop offset="1" stop-color="#FFA325"/>
</linearGradient>
<linearGradient id="paint11_linear_327_17924" x1="101.821" y1="343.434" x2="132.259" y2="367.785" gradientUnits="userSpaceOnUse">
<stop stop-color="#FFD945"/>
<stop offset="0.3043" stop-color="#FFCD3E"/>
<stop offset="0.8558" stop-color="#FFAD2B"/>
<stop offset="1" stop-color="#FFA325"/>
</linearGradient>
<linearGradient id="paint12_linear_327_17924" x1="110.727" y1="354.053" x2="77.9826" y2="307.333" gradientUnits="userSpaceOnUse">
<stop stop-color="#FFD945" stop-opacity="0"/>
<stop offset="1" stop-color="#FBED21"/>
</linearGradient>
<linearGradient id="paint13_linear_327_17924" x1="49.5949" y1="365.621" x2="120.037" y2="419.807" gradientUnits="userSpaceOnUse">
<stop stop-color="#FFD945"/>
<stop offset="0.3043" stop-color="#FFCD3E"/>
<stop offset="0.8558" stop-color="#FFAD2B"/>
<stop offset="1" stop-color="#FFA325"/>
</linearGradient>
<linearGradient id="paint14_linear_327_17924" x1="80.4315" y1="397.073" x2="54.1715" y2="348.765" gradientUnits="userSpaceOnUse">
<stop stop-color="#FFD945" stop-opacity="0"/>
<stop offset="1" stop-color="#FBED21"/>
</linearGradient>
<linearGradient id="paint15_linear_327_17924" x1="134.024" y1="380.859" x2="238.155" y2="380.859" gradientUnits="userSpaceOnUse">
<stop stop-color="#FFD945"/>
<stop offset="0.3043" stop-color="#FFCD3E"/>
<stop offset="0.8558" stop-color="#FFAD2B"/>
<stop offset="1" stop-color="#FFA325"/>
</linearGradient>
<linearGradient id="paint16_linear_327_17924" x1="213.164" y1="343.435" x2="243.603" y2="367.785" gradientUnits="userSpaceOnUse">
<stop stop-color="#FFD945"/>
<stop offset="0.3043" stop-color="#FFCD3E"/>
<stop offset="0.8558" stop-color="#FFAD2B"/>
<stop offset="1" stop-color="#FFA325"/>
</linearGradient>
<linearGradient id="paint17_linear_327_17924" x1="222.07" y1="354.053" x2="189.326" y2="307.333" gradientUnits="userSpaceOnUse">
<stop stop-color="#FFD945" stop-opacity="0"/>
<stop offset="1" stop-color="#FBED21"/>
</linearGradient>
<linearGradient id="paint18_linear_327_17924" x1="160.939" y1="365.621" x2="231.381" y2="419.807" gradientUnits="userSpaceOnUse">
<stop stop-color="#FFD945"/>
<stop offset="0.3043" stop-color="#FFCD3E"/>
<stop offset="0.8558" stop-color="#FFAD2B"/>
<stop offset="1" stop-color="#FFA325"/>
</linearGradient>
<linearGradient id="paint19_linear_327_17924" x1="191.776" y1="397.074" x2="165.516" y2="348.765" gradientUnits="userSpaceOnUse">
<stop stop-color="#FFD945" stop-opacity="0"/>
<stop offset="1" stop-color="#FBED21"/>
</linearGradient>
<linearGradient id="paint20_linear_327_17924" x1="218.2" y1="342.192" x2="220.39" y2="193.238" gradientUnits="userSpaceOnUse">
<stop stop-color="white" stop-opacity="0"/>
<stop offset="1" stop-color="white"/>
</linearGradient>
<linearGradient id="paint21_linear_327_17924" x1="237.539" y1="380.859" x2="341.67" y2="380.859" gradientUnits="userSpaceOnUse">
<stop stop-color="#FFD945"/>
<stop offset="0.3043" stop-color="#FFCD3E"/>
<stop offset="0.8558" stop-color="#FFAD2B"/>
<stop offset="1" stop-color="#FFA325"/>
</linearGradient>
<linearGradient id="paint22_linear_327_17924" x1="316.68" y1="343.435" x2="347.118" y2="367.786" gradientUnits="userSpaceOnUse">
<stop stop-color="#FFD945"/>
<stop offset="0.3043" stop-color="#FFCD3E"/>
<stop offset="0.8558" stop-color="#FFAD2B"/>
<stop offset="1" stop-color="#FFA325"/>
</linearGradient>
<linearGradient id="paint23_linear_327_17924" x1="325.585" y1="354.054" x2="292.841" y2="307.333" gradientUnits="userSpaceOnUse">
<stop stop-color="#FFD945" stop-opacity="0"/>
<stop offset="1" stop-color="#FBED21"/>
</linearGradient>
<linearGradient id="paint24_linear_327_17924" x1="264.455" y1="365.621" x2="334.897" y2="419.807" gradientUnits="userSpaceOnUse">
<stop stop-color="#FFD945"/>
<stop offset="0.3043" stop-color="#FFCD3E"/>
<stop offset="0.8558" stop-color="#FFAD2B"/>
<stop offset="1" stop-color="#FFA325"/>
</linearGradient>
<linearGradient id="paint25_linear_327_17924" x1="295.291" y1="397.074" x2="269.031" y2="348.766" gradientUnits="userSpaceOnUse">
<stop stop-color="#FFD945" stop-opacity="0"/>
<stop offset="1" stop-color="#FBED21"/>
</linearGradient>
<linearGradient id="paint26_linear_327_17924" x1="307.465" y1="379.699" x2="262.044" y2="259.954" gradientUnits="userSpaceOnUse">
<stop stop-color="#E87264" stop-opacity="0"/>
<stop offset="1" stop-color="#FF7044"/>
</linearGradient>
<linearGradient id="paint27_linear_327_17924" x1="185.314" y1="335.632" x2="289.445" y2="335.632" gradientUnits="userSpaceOnUse">
<stop stop-color="#FFD945"/>
<stop offset="0.3043" stop-color="#FFCD3E"/>
<stop offset="0.8558" stop-color="#FFAD2B"/>
<stop offset="1" stop-color="#FFA325"/>
</linearGradient>
<linearGradient id="paint28_linear_327_17924" x1="264.454" y1="298.208" x2="294.893" y2="322.559" gradientUnits="userSpaceOnUse">
<stop stop-color="#FFD945"/>
<stop offset="0.3043" stop-color="#FFCD3E"/>
<stop offset="0.8558" stop-color="#FFAD2B"/>
<stop offset="1" stop-color="#FFA325"/>
</linearGradient>
<linearGradient id="paint29_linear_327_17924" x1="273.352" y1="308.827" x2="240.608" y2="262.107" gradientUnits="userSpaceOnUse">
<stop stop-color="#FFD945" stop-opacity="0"/>
<stop offset="1" stop-color="#FBED21"/>
</linearGradient>
<linearGradient id="paint30_linear_327_17924" x1="212.228" y1="320.394" x2="282.671" y2="374.58" gradientUnits="userSpaceOnUse">
<stop stop-color="#FFD945"/>
<stop offset="0.3043" stop-color="#FFCD3E"/>
<stop offset="0.8558" stop-color="#FFAD2B"/>
<stop offset="1" stop-color="#FFA325"/>
</linearGradient>
<linearGradient id="paint31_linear_327_17924" x1="243.073" y1="351.847" x2="216.813" y2="303.539" gradientUnits="userSpaceOnUse">
<stop stop-color="#FFD945" stop-opacity="0"/>
<stop offset="1" stop-color="#FBED21"/>
</linearGradient>
<linearGradient id="paint32_linear_327_17924" x1="237.542" y1="53.2905" x2="246.201" y2="61.9495" gradientUnits="userSpaceOnUse">
<stop stop-color="#FFD945"/>
<stop offset="0.3043" stop-color="#FFCD3E"/>
<stop offset="0.8558" stop-color="#FFAD2B"/>
<stop offset="1" stop-color="#FFA325"/>
</linearGradient>
<linearGradient id="paint33_linear_327_17924" x1="238.028" y1="58.58" x2="263.315" y2="67.9613" gradientUnits="userSpaceOnUse">
<stop stop-color="#E87264" stop-opacity="0"/>
<stop offset="1" stop-color="#FF7044"/>
</linearGradient>
<linearGradient id="paint34_linear_327_17924" x1="234.203" y1="61.8089" x2="262.275" y2="72.5944" gradientUnits="userSpaceOnUse">
<stop stop-color="#E87264" stop-opacity="0"/>
<stop offset="1" stop-color="#FF7044"/>
</linearGradient>
<linearGradient id="paint35_linear_327_17924" x1="245.687" y1="58.6599" x2="227.58" y2="49.5376" gradientUnits="userSpaceOnUse">
<stop stop-color="#FFD945" stop-opacity="0"/>
<stop offset="0.4415" stop-color="#FEE038" stop-opacity="0.442"/>
<stop offset="1" stop-color="#FBED21"/>
</linearGradient>
<linearGradient id="paint36_linear_327_17924" x1="246.203" y1="66.4456" x2="237.544" y2="75.104" gradientUnits="userSpaceOnUse">
<stop stop-color="#FFD945"/>
<stop offset="0.3043" stop-color="#FFCD3E"/>
<stop offset="0.8558" stop-color="#FFAD2B"/>
<stop offset="1" stop-color="#FFA325"/>
</linearGradient>
<linearGradient id="paint37_linear_327_17924" x1="240.93" y1="66.9321" x2="231.548" y2="92.2198" gradientUnits="userSpaceOnUse">
<stop stop-color="#E87264" stop-opacity="0"/>
<stop offset="1" stop-color="#FF7044"/>
</linearGradient>
<linearGradient id="paint38_linear_327_17924" x1="237.701" y1="63.1067" x2="226.915" y2="91.1787" gradientUnits="userSpaceOnUse">
<stop stop-color="#E87264" stop-opacity="0"/>
<stop offset="1" stop-color="#FF7044"/>
</linearGradient>
<linearGradient id="paint39_linear_327_17924" x1="240.837" y1="74.6037" x2="249.96" y2="56.4962" gradientUnits="userSpaceOnUse">
<stop stop-color="#FFD945" stop-opacity="0"/>
<stop offset="0.4415" stop-color="#FEE038" stop-opacity="0.442"/>
<stop offset="1" stop-color="#FBED21"/>
</linearGradient>
<radialGradient id="paint40_radial_327_17924" cx="0" cy="0" r="1" gradientUnits="userSpaceOnUse" gradientTransform="translate(228.455 62.5699) scale(13.3048 13.3048)">
<stop stop-color="#FFD945"/>
<stop offset="0.4169" stop-color="#FFD744"/>
<stop offset="0.6278" stop-color="#FFCF3F"/>
<stop offset="0.7926" stop-color="#FFC237"/>
<stop offset="0.9326" stop-color="#FFAF2C"/>
<stop offset="1" stop-color="#FFA325"/>
</radialGradient>
<linearGradient id="paint41_linear_327_17924" x1="233.387" y1="68.5254" x2="220.613" y2="55.7516" gradientUnits="userSpaceOnUse">
<stop stop-color="#FFD945" stop-opacity="0"/>
<stop offset="1" stop-color="#FBED21"/>
</linearGradient>
<linearGradient id="paint42_linear_327_17924" x1="236.072" y1="67.0714" x2="255.964" y2="50.235" gradientUnits="userSpaceOnUse">
<stop stop-color="#E87264" stop-opacity="0"/>
<stop offset="1" stop-color="#FF7044"/>
</linearGradient>
<linearGradient id="paint43_linear_327_17924" x1="231.533" y1="63.3864" x2="231.533" y2="53.3177" gradientUnits="userSpaceOnUse">
<stop stop-color="white" stop-opacity="0"/>
<stop offset="1" stop-color="white"/>
</linearGradient>
<linearGradient id="paint44_linear_327_17924" x1="304.061" y1="158.079" x2="364.424" y2="158.079" gradientUnits="userSpaceOnUse">
<stop stop-color="#4AB272"/>
<stop offset="0.3386" stop-color="#47B071"/>
<stop offset="0.5502" stop-color="#3FA870"/>
<stop offset="0.727" stop-color="#309B6D"/>
<stop offset="0.8837" stop-color="#1C8869"/>
<stop offset="1" stop-color="#077565"/>
</linearGradient>
<linearGradient id="paint45_linear_327_17924" x1="8.21035" y1="169.079" x2="68.5728" y2="169.079" gradientUnits="userSpaceOnUse">
<stop stop-color="#4AB272"/>
<stop offset="0.3386" stop-color="#47B071"/>
<stop offset="0.5502" stop-color="#3FA870"/>
<stop offset="0.727" stop-color="#309B6D"/>
<stop offset="0.8837" stop-color="#1C8869"/>
<stop offset="1" stop-color="#077565"/>
</linearGradient>
<linearGradient id="paint46_linear_327_17924" x1="272.14" y1="109.867" x2="314.826" y2="109.867" gradientUnits="userSpaceOnUse">
<stop stop-color="#4AB272"/>
<stop offset="0.3386" stop-color="#47B071"/>
<stop offset="0.5502" stop-color="#3FA870"/>
<stop offset="0.727" stop-color="#309B6D"/>
<stop offset="0.8837" stop-color="#1C8869"/>
<stop offset="1" stop-color="#077565"/>
</linearGradient>
<linearGradient id="paint47_linear_327_17924" x1="348.164" y1="74.6105" x2="390.85" y2="74.6105" gradientUnits="userSpaceOnUse">
<stop stop-color="#4AB272"/>
<stop offset="0.3386" stop-color="#47B071"/>
<stop offset="0.5502" stop-color="#3FA870"/>
<stop offset="0.727" stop-color="#309B6D"/>
<stop offset="0.8837" stop-color="#1C8869"/>
<stop offset="1" stop-color="#077565"/>
</linearGradient>
<linearGradient id="paint48_linear_327_17924" x1="53.5778" y1="81.1946" x2="96.2637" y2="81.1946" gradientUnits="userSpaceOnUse">
<stop stop-color="#4AB272"/>
<stop offset="0.3386" stop-color="#47B071"/>
<stop offset="0.5502" stop-color="#3FA870"/>
<stop offset="0.727" stop-color="#309B6D"/>
<stop offset="0.8837" stop-color="#1C8869"/>
<stop offset="1" stop-color="#077565"/>
</linearGradient>
<clipPath id="clip0_327_17924">
<rect width="405" height="405" fill="white"/>
</clipPath>
</defs>
</svg>
