<svg width="26" height="26" viewBox="0 0 26 26" fill="none" xmlns="http://www.w3.org/2000/svg">
<g clip-path="url(#clip0_439_20925)">
<g clip-path="url(#clip1_439_20925)">
<path d="M13 26C20.1797 26 26 20.1797 26 13C26 5.8203 20.1797 0 13 0C5.8203 0 0 5.8203 0 13C0 20.1797 5.8203 26 13 26Z" fill="#FBFBFB"/>
<path d="M7.52004 19.2602H18.47C19.77 19.2602 20.82 18.2102 20.82 16.9102V9.09023C20.82 7.79023 19.77 6.74023 18.47 6.74023H7.52004C6.22004 6.74023 5.17004 7.79023 5.17004 9.09023V16.9102C5.17004 18.2102 6.22004 19.2602 7.52004 19.2602ZM19.26 16.9102C19.26 17.3402 18.91 17.6902 18.48 17.6902H7.52004C7.09004 17.6902 6.74004 17.3402 6.74004 16.9102V11.8502L12.68 14.4902C12.88 14.5802 13.11 14.5802 13.32 14.4902L19.26 11.8502V16.9102ZM6.74004 9.09023C6.74004 8.66023 7.09004 8.31024 7.52004 8.31024H18.48C18.91 8.31024 19.26 8.66023 19.26 9.09023V10.1502L13 12.9302L6.74004 10.1502V9.09023Z" fill="#0F223B"/>
</g>
</g>
<defs>
<clipPath id="clip0_439_20925">
<rect width="26" height="26" fill="white"/>
</clipPath>
<clipPath id="clip1_439_20925">
<rect width="26" height="26" fill="white"/>
</clipPath>
</defs>
</svg>
