<svg width="26" height="26" viewBox="0 0 26 26" fill="none" xmlns="http://www.w3.org/2000/svg">
<g clip-path="url(#clip0_439_20918)">
<g clip-path="url(#clip1_439_20918)">
<path d="M13 26C20.1797 26 26 20.1797 26 13C26 5.8203 20.1797 0 13 0C5.8203 0 0 5.8203 0 13C0 20.1797 5.8203 26 13 26Z" fill="#039BE5"/>
<path d="M5.94862 12.7186L18.4828 7.88581C19.0645 7.67564 19.5726 8.02773 19.3841 8.90739L19.3852 8.90631L17.251 18.9607C17.0929 19.6736 16.6693 19.8469 16.0767 19.5111L12.8267 17.1158L11.2591 18.626C11.0858 18.7993 10.9395 18.9456 10.6037 18.9456L10.8345 15.6381L16.8578 10.1966C17.12 9.96581 16.7993 9.83581 16.4537 10.0655L9.01012 14.752L5.80129 13.751C5.10471 13.53 5.08954 13.0544 5.94862 12.7186Z" fill="white"/>
</g>
</g>
<defs>
<clipPath id="clip0_439_20918">
<rect width="26" height="26" fill="white"/>
</clipPath>
<clipPath id="clip1_439_20918">
<rect width="26" height="26" fill="white"/>
</clipPath>
</defs>
</svg>
