<svg width="26" height="26" viewBox="0 0 26 26" fill="none" xmlns="http://www.w3.org/2000/svg">
<g clip-path="url(#clip0_439_20912)">
<path d="M13.0032 0H12.9968C5.82888 0 0 5.8305 0 13C0 15.8438 0.9165 18.4795 2.47488 20.6196L0.85475 25.4491L5.85163 23.8518C7.90725 25.2135 10.3594 26 13.0032 26C20.1711 26 26 20.1679 26 13C26 5.83213 20.1711 0 13.0032 0Z" fill="#4CAF50"/>
<path d="M20.5659 18.358C20.2523 19.2437 19.0076 19.9782 18.0147 20.1927C17.3354 20.3373 16.4482 20.4527 13.4614 19.2144C9.64106 17.6317 7.18081 13.7495 6.98906 13.4977C6.80544 13.2458 5.44531 11.442 5.44531 9.57654C5.44531 7.71104 6.39269 6.80266 6.77456 6.41266C7.08819 6.09254 7.60656 5.94629 8.10381 5.94629C8.26469 5.94629 8.40931 5.95441 8.53931 5.96091C8.92119 5.97716 9.11294 5.99991 9.36481 6.60279C9.67844 7.35841 10.4422 9.22391 10.5332 9.41566C10.6258 9.60741 10.7184 9.86741 10.5884 10.1193C10.4666 10.3793 10.3593 10.4947 10.1676 10.7157C9.97581 10.9367 9.79381 11.1057 9.60206 11.3429C9.42656 11.5493 9.22831 11.7703 9.44931 12.1522C9.67031 12.5259 10.4341 13.7723 11.5586 14.7733C13.0097 16.0652 14.1862 16.4779 14.6071 16.6534C14.9207 16.7834 15.2944 16.7525 15.5236 16.5088C15.8144 16.1952 16.1736 15.6752 16.5392 15.1633C16.7992 14.796 17.1274 14.7505 17.4719 14.8805C17.8229 15.0024 19.6803 15.9205 20.0622 16.1107C20.4441 16.3024 20.6959 16.3934 20.7886 16.5543C20.8796 16.7152 20.8796 17.4708 20.5659 18.358Z" fill="#FAFAFA"/>
</g>
<defs>
<clipPath id="clip0_439_20912">
<rect width="26" height="26" fill="white"/>
</clipPath>
</defs>
</svg>
