<svg width="1043" height="136" viewBox="0 0 1043 136" fill="none" xmlns="http://www.w3.org/2000/svg">
<path d="M569.15 54.21C569.15 51.86 571.12 49.98 574.16 49.98C577.2 49.98 579.17 51.86 579.17 54.21C579.17 56.56 577.2 58.44 574.16 58.44C571.12 58.44 569.15 56.56 569.15 54.21ZM574.16 57.27C576.55 57.27 577.88 55.88 577.88 54.22C577.88 52.56 576.54 51.17 574.16 51.17C571.78 51.17 570.44 52.56 570.44 54.22C570.44 55.88 571.78 57.27 574.16 57.27ZM571.6 52.22H574.47C575.9 52.22 576.77 52.49 576.77 53.37C576.77 54.02 576.3 54.25 575.57 54.38C576.24 54.42 576.49 54.62 576.61 55.13L576.72 55.65C576.77 55.89 576.81 56.05 576.88 56.17V56.22H574.92C574.84 56.09 574.79 55.87 574.74 55.65L574.64 55.13C574.59 54.82 574.48 54.75 574.1 54.75H573.57V56.22H571.6V52.22ZM574.09 53.85C574.56 53.85 574.78 53.78 574.78 53.52C574.78 53.26 574.55 53.2 574.09 53.2H573.57V53.84H574.09V53.85Z" fill="white"/>
<path d="M224.15 0H567.85C606.93 0 638.61 30.41 638.61 67.92C638.61 105.43 606.93 135.84 567.85 135.84H157.27L224.15 0Z" fill="#EEEFEF"/>
<path d="M314.41 87.87H285.17L278.82 96.97H257.73L303.04 33.77H330.71L334.16 96.97H314.64L314.4 87.87H314.41ZM314.02 73.8L313.39 51.5301H310.49L294.97 73.8H314.02Z" fill="#0068F9"/>
<path d="M357.84 33.77H381.83L381.28 72.14H383L408.08 33.84H434.18L413.09 96.97H394.12L404.7 65.67H402.74L382.75 96.97H367.86V65.67H365.98L355.4 96.97H336.59L357.83 33.77H357.84Z" fill="#0068F9"/>
<path d="M440.22 33.77H459.9L438.66 96.97H418.91L440.23 33.77H440.22Z" fill="#0068F9"/>
<path d="M465.92 33.77H487.79L500.49 71.24H502.61L515.39 33.77H534.59L513.19 96.97H491.87L478.54 59.88H476.42L463.72 96.97H444.44L465.92 33.77Z" fill="#0068F9"/>
<path d="M573.47 87.87H544.23L537.88 96.97H516.79L562.1 33.77H589.77L593.22 96.97H573.7L573.46 87.87H573.47ZM573.08 73.8L572.45 51.5301H569.55L554.03 73.8H573.08Z" fill="#0068F9"/>
<path d="M598.44 97.92C598.44 95.6 600.38 93.75 603.38 93.75C606.38 93.75 608.32 95.6 608.32 97.92C608.32 100.24 606.38 102.09 603.38 102.09C600.38 102.09 598.44 100.24 598.44 97.92ZM603.39 100.93C605.74 100.93 607.06 99.56 607.06 97.92C607.06 96.28 605.74 94.91 603.39 94.91C601.04 94.91 599.72 96.28 599.72 97.92C599.72 99.56 601.04 100.93 603.39 100.93ZM600.86 95.94H603.69C605.1 95.94 605.96 96.2 605.96 97.08C605.96 97.73 605.5 97.95 604.78 98.07C605.44 98.11 605.69 98.31 605.8 98.81L605.91 99.32C605.96 99.56 606 99.71 606.07 99.83V99.88H604.14C604.07 99.75 604.02 99.53 603.97 99.32L603.87 98.81C603.82 98.5 603.71 98.44 603.33 98.44H602.81V99.89H600.87V95.95L600.86 95.94ZM603.31 97.56C603.77 97.56 604 97.49 604 97.24C604 96.99 603.78 96.93 603.31 96.93H602.8V97.56H603.31Z" fill="#0068F9"/>
<path d="M219.53 136L70.76 135.84C31.68 135.84 0 105.43 0 67.92C0 30.41 31.68 0 70.76 0H317.06L219.53 136Z" fill="#0068F9"/>
<path d="M160.28 48.9001L156.91 58.98H195.08L190.93 71.32H152.76L146.19 81.85H187.72L182.55 96.97H135.22L145.84 73.88L131.68 75.32L145.71 33.78H204.03L198.86 48.9001H160.29H160.28Z" fill="white"/>
<path d="M134.99 96.97L168.4 58.92H156.96L160.27 48.97L176.16 48.93V33.79L145.52 33.75L131.56 75.28L141.12 75.22L134.99 96.97Z" fill="white"/>
<path opacity="0.57" d="M134.95 96.9999L168.36 58.9099H178.4L135.83 96.95L134.95 96.9999Z" fill="#020202"/>
<path d="M268.3 49.57H247.72L231.65 96.97H211.9L227.97 49.57H203.98L209.23 33.77H279.68L268.3 49.57Z" fill="white"/>
<path d="M117.92 62.67L117.45 63.8C121.76 65.83 125.84 68.77 125.84 76.29C125.84 90.81 110.95 96.98 91.74 96.98H58.09C55.82 96.98 54.2 94.85 54.9 92.7701L74.8 33.78H110.62C126.38 33.78 131.47 39.35 131.47 46.87C131.47 53.34 127.24 59.74 117.91 62.67H117.92ZM107.1 74.7801C107.1 72.3701 105.53 70.04 100.05 70.04H82.33L78.18 82.38H96.13C102.32 82.38 107.1 79.6001 107.1 74.7801ZM112.12 52.73C112.12 50.32 110.47 48.37 105.38 48.37H89.7L86.02 59.2801H101.7C108.13 59.2801 112.13 56.35 112.13 52.73H112.12Z" fill="white"/>
<path d="M659.617 56.3153H678.144C685.665 56.3153 690.147 58.3075 690.147 63.6035C690.147 68.8995 685.648 70.8916 677.995 70.8916H666.905V79.5911H659.6V56.3153H659.617ZM677.862 65.9609C680.933 65.9609 682.859 65.5127 682.859 63.6035C682.859 61.6943 680.933 61.2792 677.862 61.2792H666.921V65.9609H677.862Z" fill="white"/>
<path d="M727.601 56.3153L743.356 79.5911H734.972L731.768 74.3615H715.266L712.062 79.5911H703.645L719.433 56.3153H727.601ZM728.63 69.1153L723.501 60.8309L718.404 69.1153H728.63Z" fill="white"/>
<path d="M762.149 56.3153H780.677C788.198 56.3153 792.68 57.7264 792.68 62.9228C792.68 66.625 789.858 68.1524 786.056 68.7003C789.692 68.8995 790.97 70.3438 791.551 72.9835L792.365 76.7521C792.647 78.1965 792.863 78.8107 793.228 79.3254V79.6076H785.608C785.176 78.9601 784.861 77.8312 784.678 76.7355L784.114 73.548C783.765 71.423 783.084 70.5763 779.797 70.5763H769.454V79.6076H762.149V56.3319V56.3153ZM780.146 66.1435C783.466 66.1435 785.392 65.795 785.392 63.7197C785.392 61.6445 783.466 61.2958 780.146 61.2958H769.454V66.1602H780.146V66.1435Z" fill="white"/>
<path d="M839.796 61.5117H828.922V79.5744H821.617V61.5117H810.743V56.3153H839.796V61.5117Z" fill="white"/>
<path d="M865.014 56.3153L882.828 70.8916V56.3153H890.133V79.5911H883.89L866.077 64.8818V79.5911H858.772V56.3153H865.014Z" fill="white"/>
<path d="M940.121 56.3153V61.2792H918.306V65.3799H939.191V70.3438H918.306V74.627H940.121V79.5911H911.001V56.3153H940.121Z" fill="white"/>
<path d="M960.375 56.3153H978.903C986.423 56.3153 990.906 57.7264 990.906 62.9228C990.906 66.625 988.083 68.1524 984.282 68.7003C987.917 68.8995 989.196 70.3438 989.777 72.9835L990.59 76.7521C990.873 78.1965 991.088 78.8107 991.453 79.3254V79.6076H983.833C983.402 78.9601 983.086 77.8312 982.904 76.7355L982.339 73.548C981.99 71.423 981.31 70.5763 978.023 70.5763H967.68V79.6076H960.375V56.3319V56.3153ZM978.371 66.1435C981.692 66.1435 983.617 65.795 983.617 63.7197C983.617 61.6445 981.692 61.2958 978.371 61.2958H967.68V66.1602H978.371V66.1435Z" fill="white"/>
<path d="M1010.61 71.8547H1018.45C1018.85 74.1457 1021.37 75.3079 1027.25 75.3079C1033.87 75.3079 1035.38 74.013 1035.38 72.5354C1035.38 71.0579 1033.99 70.5764 1030.5 70.3107L1021.42 69.7629C1013.97 69.2814 1011.01 67.4718 1011.01 63.5372C1011.01 58.5732 1017.07 56 1026.45 56C1038.2 56 1041.89 59.8018 1042.3 63.9688H1034.47C1034.04 61.9434 1032.19 60.5821 1026.02 60.5821C1020.67 60.5821 1018.32 61.6114 1018.32 63.1221C1018.32 64.3507 1019.56 64.7658 1023.35 65.0314L1032.23 65.546C1039.03 65.9611 1042.7 67.5051 1042.7 71.9875C1042.7 77.3001 1037.92 79.89 1026.98 79.89C1016.04 79.89 1011.38 76.5032 1010.63 71.8547H1010.61Z" fill="white"/>
</svg>
