<svg width="88" height="24" viewBox="0 0 88 24" fill="none" xmlns="http://www.w3.org/2000/svg">
<g clip-path="url(#clip0_449_4807)">
<path d="M6.24796 23.2839C5.08704 23.2839 3.95348 23.1011 2.84665 22.7361C1.73983 22.3711 0.790944 21.8537 0 21.1766L1.31886 18.9934C2.16328 19.5841 2.98407 20.0287 3.78497 20.334C4.58586 20.6362 5.37991 20.7886 6.17024 20.7886C6.8735 20.7886 7.42878 20.6592 7.83234 20.3968C8.23589 20.1382 8.43798 19.7632 8.43798 19.2788C8.43798 18.7944 8.19921 18.4394 7.72476 18.2137C7.25032 17.9879 6.47679 17.7293 5.40292 17.4339C4.50813 17.1914 3.74082 16.9595 3.10844 16.7306C2.47605 16.5049 1.9643 16.2494 1.58064 15.9639C1.19388 15.6785 0.910954 15.3502 0.736225 14.9753C0.561496 14.6034 0.47382 14.1557 0.47382 13.6346C0.47382 12.9413 0.608132 12.3176 0.881107 11.763C1.15346 11.2089 1.53712 10.7345 2.02835 10.3459C2.51958 9.95413 3.09476 9.65566 3.7545 9.44984C4.41424 9.24092 5.13057 9.1377 5.90472 9.1377C6.94128 9.1377 7.91317 9.28693 8.81853 9.57918C9.72389 9.87454 10.5546 10.3527 11.3114 11.0093L9.88805 13.1167C9.18478 12.5956 8.50514 12.2144 7.84602 11.9719C7.18627 11.7294 6.53026 11.6069 5.88109 11.6069C5.28229 11.6069 4.78111 11.7294 4.37693 11.9719C3.97338 12.2144 3.77129 12.6055 3.77129 13.1434C3.77129 13.3859 3.81854 13.5849 3.91617 13.741C4.01379 13.897 4.16489 14.0363 4.37693 14.1557C4.58897 14.2782 4.86505 14.3945 5.20767 14.5077C5.55091 14.6202 5.9781 14.7365 6.48612 14.8596C7.435 15.1021 8.24895 15.344 8.92548 15.5865C9.60201 15.829 10.1567 16.1076 10.5876 16.4191C11.0185 16.7313 11.3344 17.0894 11.5365 17.4973C11.7386 17.9052 11.8393 18.3934 11.8393 18.9673C11.8393 20.3011 11.3381 21.3563 10.3351 22.1261C9.33277 22.899 7.96976 23.2839 6.24734 23.2839H6.24796Z" fill="white"/>
<path d="M20.514 23.2837C19.3904 23.2837 18.3774 23.0947 17.4827 22.7129C16.5841 22.3311 15.8237 21.8169 15.2012 21.1664C14.5788 20.516 14.0975 19.7661 13.7649 18.9167C13.4316 18.0673 13.2637 17.175 13.2637 16.2392C13.2637 15.3034 13.4322 14.3843 13.7649 13.535C14.0981 12.6856 14.5788 11.9357 15.2012 11.2852C15.8237 10.6348 16.5841 10.1206 17.4827 9.73879C18.3774 9.357 19.3904 9.16797 20.514 9.16797C21.6376 9.16797 22.6437 9.36073 23.5323 9.73879C24.4202 10.1206 25.1745 10.6348 25.8 11.2852C26.4224 11.9357 26.9037 12.6856 27.2364 13.535C27.5697 14.3843 27.7376 15.2872 27.7376 16.2392C27.7376 17.1912 27.5691 18.0673 27.2364 18.9167C26.9031 19.7661 26.4287 20.516 25.8131 21.1664C25.1975 21.8169 24.4438 22.3311 23.5453 22.7129C22.6505 23.0941 21.6407 23.2837 20.514 23.2837ZM16.9038 16.2361C16.9038 16.8436 16.9945 17.3939 17.1798 17.8889C17.3651 18.3832 17.617 18.811 17.9434 19.176C18.2699 19.541 18.6498 19.8233 19.0907 20.0223C19.5315 20.2213 20.006 20.3208 20.514 20.3208C21.022 20.3208 21.4965 20.2213 21.9373 20.0223C22.3745 19.8233 22.7581 19.541 23.0846 19.176C23.411 18.811 23.6635 18.3795 23.8481 17.8752C24.0334 17.3709 24.1242 16.8169 24.1242 16.2094C24.1242 15.6019 24.0297 15.0746 23.8481 14.5703C23.6628 14.066 23.4073 13.6344 23.0846 13.2694C22.7581 12.9044 22.3782 12.6221 21.9373 12.4232C21.4965 12.2242 21.022 12.1247 20.514 12.1247C20.006 12.1247 19.5284 12.2279 19.0907 12.4368C18.6498 12.6458 18.2699 12.9312 17.9434 13.2962C17.617 13.6612 17.3645 14.0927 17.1798 14.597C16.9945 15.1013 16.9038 15.6491 16.9038 16.2361Z" fill="white"/>
<path d="M30.0864 4.04199H33.6189V18.6558C33.6189 19.1601 33.7401 19.5487 33.9889 19.8273C34.2345 20.1059 34.5877 20.242 35.0422 20.242C35.2543 20.242 35.4862 20.2085 35.7418 20.1388C35.9973 20.0692 36.2398 19.9827 36.4649 19.8802L36.9394 22.5316C36.4649 22.7573 35.9096 22.9295 35.2773 23.0526C34.6449 23.172 34.0728 23.2354 33.5611 23.2354C32.4542 23.2354 31.5961 22.9469 30.9905 22.3624C30.3849 21.7817 30.082 20.9559 30.082 19.877V4.04199H30.0851H30.0864Z" fill="white"/>
<path d="M37.6022 16.2125C37.6022 15.2605 37.7707 14.3576 38.1034 13.5082C38.4367 12.6588 38.921 11.912 39.5534 11.2716C40.1858 10.6311 40.95 10.12 41.8479 9.73879C42.7427 9.357 43.7556 9.16797 44.8792 9.16797C46.3896 9.16797 47.6786 9.49007 48.7419 10.1305C49.8052 10.771 50.5993 11.6136 51.1272 12.6526L47.6718 13.691C47.3721 13.1898 46.9754 12.8018 46.4841 12.5332C45.9929 12.2646 45.4476 12.1315 44.8488 12.1315C44.3408 12.1315 43.8632 12.231 43.4254 12.43C42.9846 12.629 42.6047 12.9075 42.2782 13.2626C41.9518 13.6177 41.6993 14.0492 41.5146 14.5497C41.3293 15.054 41.2385 15.6081 41.2385 16.2156C41.2385 16.8231 41.3362 17.3765 41.5277 17.8814C41.7192 18.3857 41.9785 18.8172 42.3049 19.1822C42.6277 19.5472 43.0113 19.8295 43.4522 20.0285C43.8893 20.2275 44.3575 20.327 44.8488 20.327C45.4812 20.327 46.0669 20.1709 46.6017 19.8588C47.1364 19.5472 47.5101 19.1655 47.7222 18.714L51.1776 19.7562C50.7031 20.7946 49.919 21.644 48.829 22.3044C47.739 22.9647 46.43 23.293 44.8991 23.293C43.7755 23.293 42.7626 23.1003 41.8678 22.7222C40.973 22.3404 40.2057 21.8262 39.5733 21.1758C38.9409 20.5254 38.4528 19.7723 38.1096 18.913C37.7732 18.0437 37.6016 17.1477 37.6016 16.2119L37.6022 16.2125Z" fill="white"/>
<path d="M61.5716 12.4168C60.4984 12.4336 59.5396 12.6394 58.6983 13.0274C57.8538 13.4192 57.2482 14.0031 56.8782 14.7828V23.0249H53.3457V9.39668H56.5891V12.3099C56.8347 11.8423 57.1238 11.4207 57.4602 11.0488C57.7935 10.677 58.1535 10.3518 58.5403 10.0732C58.9271 9.79775 59.3176 9.58198 59.7143 9.43648C60.111 9.29035 60.4916 9.21387 60.8615 9.21387H61.2956C61.3932 9.21387 61.484 9.22382 61.5716 9.24061V12.4162V12.4168Z" fill="white"/>
<path d="M69.2691 23.2837C68.1622 23.2837 67.1593 23.0978 66.2614 22.7266C65.3666 22.3547 64.5993 21.8473 63.9669 21.2069C63.3345 20.5664 62.8464 19.8196 62.5031 18.9702C62.1599 18.1208 61.9883 17.2285 61.9883 16.2927C61.9883 15.3569 62.1531 14.408 62.4895 13.5486C62.8228 12.6893 63.3071 11.9357 63.9395 11.2852C64.5719 10.6348 65.3423 10.1206 66.2477 9.73879C67.153 9.357 68.1691 9.16797 69.2927 9.16797C70.4163 9.16797 71.4261 9.36073 72.311 9.73879C73.1989 10.1206 73.9532 10.6317 74.5787 11.2716C75.2012 11.912 75.6756 12.6588 76.002 13.5082C76.3285 14.3576 76.4902 15.24 76.4902 16.1596C76.4902 16.3853 76.4871 16.6011 76.4765 16.81C76.4665 17.019 76.446 17.1912 76.4093 17.3311H65.7303C65.7844 17.8684 65.9156 18.3465 66.124 18.7613C66.336 19.1791 66.6083 19.5342 66.9416 19.8264C67.2749 20.1218 67.6549 20.3475 68.0752 20.5036C68.4955 20.6597 68.9364 20.7393 69.3941 20.7393C70.0973 20.7393 70.7602 20.5701 71.3857 20.2319C72.0082 19.8936 72.4353 19.449 72.6642 18.8912L75.6955 19.7238C75.1844 20.766 74.3735 21.6185 73.2561 22.2857C72.1493 22.9529 70.8168 23.2843 69.2691 23.2843V23.2837ZM72.8557 15.0677C72.768 14.0455 72.3843 13.2259 71.7084 12.6091C71.0319 11.9953 70.2111 11.6869 69.2423 11.6869C68.7679 11.6869 68.3239 11.7696 67.9098 11.9325C67.4957 12.0986 67.1325 12.3274 66.816 12.6228C66.4995 12.9181 66.2409 13.2732 66.0388 13.6879C65.8367 14.1027 65.7192 14.564 65.6818 15.0652H72.8551V15.0683L72.8557 15.0677Z" fill="white"/>
<path d="M74.9718 7.16762H80.7254V0L74.5278 6.11241C74.1342 6.50415 74.4134 7.16762 74.9718 7.16762Z" fill="#8B8B8B"/>
<path d="M87.9956 7.16762H80.7285V0H87.2457C87.663 0 87.9994 0.332047 87.9994 0.743065V7.167H87.9962L87.9956 7.16762Z" fill="#3A3A3A"/>
<path d="M87.9956 7.16699H80.7285V12.841C80.7285 13.3919 81.405 13.6705 81.8018 13.2794L87.9956 7.16699Z" fill="#4B4B4B"/>
</g>
<defs>
<clipPath id="clip0_449_4807">
<rect width="88" height="23.2943" fill="white"/>
</clipPath>
</defs>
</svg>
