<svg xmlns="http://www.w3.org/2000/svg" version="1.1" xmlns:xlink="http://www.w3.org/1999/xlink" width="512" height="512" x="0" y="0" viewBox="0 0 24 24" style="enable-background:new 0 0 512 512" xml:space="preserve" class=""><g><path d="m.415 11.196 5.869 2.925a.752.752 0 0 0 .712-.023l5.224-3.037-3.162 2.802a.751.751 0 0 0-.253.562v6.825c0 .72.919 1.023 1.35.451l2.537-3.373 6.274 3.573a.75.75 0 0 0 1.106-.504l3.913-19.5a.75.75 0 0 0-1.008-.846L.477 9.826a.75.75 0 0 0-.062 1.37zm21.83-8.249-3.439 17.137-5.945-3.386a.752.752 0 0 0-.971.201l-1.585 2.107v-4.244l8.551-7.576c.677-.599-.101-1.664-.874-1.21l-11.39 6.622L2.6 10.609z" fill="#ffffff" opacity="1" data-original="#0068F9" class=""></path></g></svg>