<svg width="30" height="30" viewBox="0 0 30 30" fill="none" xmlns="http://www.w3.org/2000/svg">
<g clip-path="url(#clip0_278_17505)">
<g clip-path="url(#clip1_278_17505)">
<path d="M5.40378 30C4.07068 30 3 28.9188 3 27.5962V19.1987C3 17.8656 4.08118 16.795 5.40378 16.795C6.72638 16.795 7.80756 17.8761 7.80756 19.1987V27.5962C7.80756 28.9293 6.72638 30 5.40378 30Z" fill="white"/>
<path d="M15.2079 30C13.8748 30 12.8041 28.9188 12.8041 27.5962V2.40378C12.8041 1.07068 13.8853 0 15.2079 0C16.5305 0 17.6116 1.08118 17.6116 2.40378V27.5962C17.6116 28.9293 16.5305 30 15.2079 30Z" fill="white"/>
<path d="M25.0119 30C23.6788 30 22.6081 28.9188 22.6081 27.5962V10.8013C22.6081 9.46815 23.6893 8.39748 25.0119 8.39748C26.3345 8.39748 27.4157 9.47865 27.4157 10.8013V27.5962C27.4157 28.9293 26.3345 30 25.0119 30Z" fill="white"/>
</g>
</g>
<defs>
<clipPath id="clip0_278_17505">
<rect width="30" height="30" fill="white"/>
</clipPath>
<clipPath id="clip1_278_17505">
<rect width="24.4157" height="30" fill="white" transform="translate(3)"/>
</clipPath>
</defs>
</svg>
