<svg width="30" height="30" viewBox="0 0 30 30" fill="none" xmlns="http://www.w3.org/2000/svg">
<g clip-path="url(#clip0_278_17518)">
<path d="M15 30C6.73117 30 0 23.2688 0 15C0 6.73117 6.73117 0 15 0C23.2688 0 30 6.73117 30 15C30 23.2688 23.2688 30 15 30ZM15 3.13808C8.45711 3.13808 3.13808 8.45711 3.13808 15C3.13808 21.5429 8.45711 26.8619 15 26.8619C21.5429 26.8619 26.8619 21.5429 26.8619 15C26.8619 8.45711 21.5429 3.13808 15 3.13808Z" fill="white"/>
<path d="M10.9676 20.6015C10.5596 20.6015 10.1673 20.4446 9.85354 20.1465C9.24161 19.5345 9.24161 18.546 9.85354 17.9341L17.9027 9.88495C18.5146 9.27303 19.5031 9.27303 20.115 9.88495C20.727 10.4969 20.727 11.4854 20.115 12.0973L12.0659 20.1465C11.7521 20.4603 11.3598 20.6015 10.9519 20.6015H10.9676Z" fill="white"/>
<path d="M10.9833 12.5366C10.1203 12.5366 9.41425 11.8306 9.41425 10.9676C9.41425 10.1046 10.1046 9.39854 10.9833 9.39854C11.8463 9.39854 12.5523 10.1046 12.5523 10.9676C12.5523 11.8306 11.8463 12.5366 10.9833 12.5366Z" fill="white"/>
<path d="M19.0324 20.6015C18.1694 20.6015 17.4634 19.8954 17.4634 19.0324C17.4634 18.1695 18.1538 17.4634 19.0324 17.4634C19.8954 17.4634 20.6015 18.1695 20.6015 19.0324C20.6015 19.8954 19.8954 20.6015 19.0324 20.6015Z" fill="white"/>
</g>
<defs>
<clipPath id="clip0_278_17518">
<rect width="30" height="30" fill="white"/>
</clipPath>
</defs>
</svg>
