<svg xmlns="http://www.w3.org/2000/svg" version="1.1" xmlns:xlink="http://www.w3.org/1999/xlink" width="512" height="512" x="0" y="0" viewBox="0 0 512 512" style="enable-background:new 0 0 512 512" xml:space="preserve" class=""><g><path d="M339.392 258.624 512 367.744V144.896zM0 144.896v222.848l172.608-109.12zM480 80H32C16.032 80 3.36 91.904.96 107.232L256 275.264l255.04-168.032C508.64 91.904 495.968 80 480 80zM310.08 277.952l-45.28 29.824a15.983 15.983 0 0 1-8.8 2.624c-3.072 0-6.112-.864-8.8-2.624l-45.28-29.856L1.024 404.992C3.488 420.192 16.096 432 32 432h448c15.904 0 28.512-11.808 30.976-27.008L310.08 277.952z" fill="#ffffff" opacity="1" data-original="#000000" class=""></path></g></svg>