<svg width="30" height="30" viewBox="0 0 30 30" fill="none" xmlns="http://www.w3.org/2000/svg">
<g clip-path="url(#clip0_278_17524)">
<g clip-path="url(#clip1_278_17524)">
<path d="M28.1435 1.44578C27.8478 0.96933 27.4206 0.575026 26.9113 0.328586C26.402 0.065716 25.8269 -0.0328602 25.2683 0.0164279C24.7097 0.065716 24.1676 0.279298 23.6747 0.640743C20.6188 3.05586 16.8565 4.30449 12.9299 4.22234C12.9299 4.22234 12.897 4.22234 12.8806 4.22234H4.45235C3.26944 4.22234 2.13582 4.68236 1.29792 5.52026C0.476451 6.35816 0 7.49178 0 8.6747V14.2935C0 15.46 0.476451 16.6101 1.29792 17.448C2.10296 18.253 3.17087 18.6966 4.28806 18.7295C4.60022 22.1468 5.84885 25.4655 7.91895 28.2092C8.62541 29.1621 9.67689 29.77 10.8598 29.9507C11.0734 29.9836 11.287 30 11.5005 30C12.4535 30 13.3899 29.6878 14.1621 29.1128C15.115 28.4063 15.7393 27.3549 15.9036 26.172C16.0679 24.989 15.7722 23.8226 15.0493 22.8697C14.1457 21.6539 13.5378 20.241 13.2749 18.7623C17.0044 18.7623 20.7174 19.9945 23.7076 22.3603C24.1676 22.7054 24.6933 22.9025 25.2683 22.9682C25.3505 22.9682 25.4491 22.9682 25.5476 22.9682C26.0241 22.9682 26.4841 22.8532 26.9113 22.6396C27.4206 22.3932 27.8478 21.9989 28.1435 21.506C28.4392 21.0296 28.6035 20.471 28.6035 19.9124V3.05586C28.6035 2.49726 28.4392 1.93866 28.1435 1.44578ZM3.28587 14.2935V8.6747C3.28587 8.36254 3.41731 8.06681 3.63089 7.85323C3.84447 7.63965 4.1402 7.50821 4.45235 7.50821H7.01533V15.4765H4.45235C4.1402 15.4765 3.84447 15.345 3.63089 15.1314C3.41731 14.9179 3.28587 14.6057 3.28587 14.31V14.2935ZM12.1906 26.4841C11.9441 26.6648 11.632 26.747 11.3198 26.7141C11.0077 26.6648 10.7284 26.5005 10.5476 26.2541C8.92114 24.069 7.90252 21.4567 7.60679 18.7623H8.65827H9.97262C10.2519 20.9639 11.0898 23.0832 12.4206 24.8576C12.6013 25.1041 12.6835 25.4162 12.6342 25.7284C12.5849 26.0405 12.437 26.3198 12.1742 26.5005L12.1906 26.4841ZM13.3899 15.46C13.2256 15.46 13.0449 15.46 12.8806 15.46H10.3012V7.49178H12.8642C17.3165 7.62322 21.736 6.19387 25.3012 3.51588L25.3341 19.4524C21.8839 16.8565 17.6616 15.4436 13.3899 15.4436V15.46Z" fill="white"/>
</g>
</g>
<defs>
<clipPath id="clip0_278_17524">
<rect width="30" height="30" fill="white"/>
</clipPath>
<clipPath id="clip1_278_17524">
<rect width="28.6035" height="30" fill="white"/>
</clipPath>
</defs>
</svg>
