<svg width="30" height="30" viewBox="0 0 30 30" fill="none" xmlns="http://www.w3.org/2000/svg">
<g clip-path="url(#clip0_447_4792)">
<path d="M27.3077 3H2.69231C1.97951 3.00406 1.29705 3.29085 0.793021 3.79814C0.288988 4.30542 0.00403862 4.99228 0 5.70968V24.2903C0.00403862 25.0077 0.288988 25.6946 0.793021 26.2019C1.29705 26.7091 1.97951 26.9959 2.69231 27H27.3077C28.0205 26.9959 28.7029 26.7091 29.207 26.2019C29.711 25.6946 29.996 25.0077 30 24.2903V5.70968C29.996 4.99228 29.711 4.30542 29.207 3.79814C28.7029 3.29085 28.0205 3.00406 27.3077 3ZM2.69231 5.32258H27.3077C27.3077 5.32258 27.4154 5.32258 27.4615 5.32258L15.2615 16.2542C15.1876 16.3145 15.0952 16.3475 15 16.3475C14.9048 16.3475 14.8124 16.3145 14.7385 16.2542L2.53846 5.38452L2.69231 5.32258ZM27.6923 24.2903C27.6923 24.393 27.6518 24.4914 27.5797 24.564C27.5075 24.6366 27.4097 24.6774 27.3077 24.6774H2.69231C2.5903 24.6774 2.49247 24.6366 2.42034 24.564C2.34821 24.4914 2.30769 24.393 2.30769 24.2903V8.29548L13.2154 18.0968C13.7077 18.5354 14.3425 18.7776 15 18.7776C15.6575 18.7776 16.2923 18.5354 16.7846 18.0968L27.6923 8.34194V24.2903Z" fill="#0068F9"/>
</g>
<defs>
<clipPath id="clip0_447_4792">
<rect width="30" height="30" fill="white"/>
</clipPath>
</defs>
</svg>
